<?xml version="1.0" standalone="no"?>
<!DOCTYPE svg PUBLIC "-//W3C//DTD SVG 20010904//EN"
 "http://www.w3.org/TR/2001/REC-SVG-20010904/DTD/svg10.dtd">
<svg version="1.0" xmlns="http://www.w3.org/2000/svg"
 width="260.000000pt" height="260.000000pt" viewBox="0 0 260.000000 260.000000"
 preserveAspectRatio="xMidYMid meet">
<metadata>
Created by potrace 1.11, written by Peter Selinger 2001-2013
</metadata>
<g transform="translate(0.000000,260.000000) scale(0.100000,-0.100000)"
fill="#000000" stroke="none">
<path d="M25 1300 l0 -1270 376 0 375 0 0 651 c-1 358 2 653 5 655 3 2 41 -36
85 -84 43 -47 92 -100 108 -117 15 -16 56 -61 90 -99 33 -38 81 -91 106 -117
25 -26 57 -62 71 -78 36 -41 71 -54 106 -38 29 13 45 29 228 233 39 43 84 92
100 110 27 30 88 97 164 183 16 18 33 31 38 28 4 -3 8 -303 8 -666 l0 -661
341 0 c265 0 343 3 346 13 2 6 4 577 3 1267 l0 1255 -335 3 c-340 3 -380 -1
-380 -35 0 -7 -4 -13 -8 -13 -4 0 -25 -22 -46 -50 -21 -27 -111 -142 -200
-253 -88 -112 -171 -217 -183 -233 -31 -40 -64 -81 -90 -113 -13 -14 -23 -29
-23 -33 0 -5 -6 -8 -14 -8 -14 0 -20 7 -108 125 -29 39 -58 76 -65 83 -7 7
-13 17 -13 21 0 4 -12 22 -27 39 -16 17 -47 58 -71 90 -23 33 -51 70 -62 82
-11 13 -20 26 -20 29 0 3 -16 24 -35 46 -19 22 -35 45 -35 52 0 7 -4 13 -8 13
-5 0 -25 24 -45 53 -20 28 -47 64 -60 80 l-24 27 -349 0 -349 0 0 -1270z"/>
</g>
</svg>
